<svg width="240" height="240" viewBox="0 0 240 240" xmlns="http://www.w3.org/2000/svg">
  <defs>
    <linearGradient id="leafFill" x1="0%" y1="0%" x2="100%" y2="100%">
      <stop offset="0%" stop-color="#8ed3f1" stop-opacity="0.5"/>
      <stop offset="100%" stop-color="#3d7fb4" stop-opacity="0.35"/>
    </linearGradient>
    <pattern id="leafPattern" width="120" height="120" patternUnits="userSpaceOnUse">
      <path d="M20 70 C15 40 50 20 70 40 C90 60 70 100 40 100 C45 80 40 80 20 70Z" fill="url(#leafFill)" opacity="0.5"/>
      <path d="M80 40 C85 20 110 20 120 40 C110 60 95 70 80 90 C70 70 65 60 80 40Z" fill="url(#leafFill)" opacity="0.45"/>
      <path d="M0 0 C25 10 40 35 30 60 C5 55 0 40 0 0Z" fill="url(#leafFill)" opacity="0.35"/>
      <path d="M50 120 C70 100 110 110 120 140 C95 145 80 150 50 120Z" fill="url(#leafFill)" opacity="0.4"/>
      <path d="M10 100 C5 70 40 60 60 80 C55 95 40 110 20 120 C15 115 12 108 10 100Z" fill="url(#leafFill)" opacity="0.3"/>
    </pattern>
  </defs>
  <rect width="240" height="240" fill="#f0f6fb"/>
  <rect width="240" height="240" fill="url(#leafPattern)" opacity="0.45"/>
</svg>
