<svg width="500" height="500" viewBox="0 0 500 500" xmlns="http://www.w3.org/2000/svg" role="img" aria-hidden="true">
    <defs>
        <linearGradient id="bgGradient" x1="0%" y1="0%" x2="0%" y2="100%">
            <stop offset="0%" stop-color="#0b486b"/>
            <stop offset="100%" stop-color="#3b8686"/>
        </linearGradient>
        <linearGradient id="skyGradient" x1="0%" y1="0%" x2="0%" y2="100%">
            <stop offset="0%" stop-color="rgba(255,255,255,0.9)"/>
            <stop offset="100%" stop-color="#3b8686"/>
        </linearGradient>
    </defs>
    <rect width="500" height="500" fill="url(#bgGradient)"/>
    
        <rect x="0" y="0" width="500" height="220" fill="url(#skyGradient)"/>
        <path d="M0 220 Q120 180 240 220 T500 220 L500 500 L0 500 Z" fill="#fdf2d1"/>
        <path d="M0 260 Q120 230 240 260 T500 260 L500 500 L0 500 Z" fill="#8fc0d0" opacity="0.85"/>
        <path d="M0 300 Q120 270 240 300 T500 300 L500 500 L0 500 Z" fill="#2b7a78" opacity="0.9"/>
        <path d="M0 340 Q120 320 240 338 T500 340 L500 500 L0 500 Z" fill="#134e5e"/>
        <circle cx="420" cy="110" r="40" fill="#ffd89b"/>
        <circle cx="420" cy="110" r="55" fill="#ffd89b" opacity="0.2"/>
        
</svg>